G04 #@! TF.FileFunction,Copper,L1,Top,Signal*
%FSLAX46Y46*%
G04 Gerber Fmt 4.6, Leading zero omitted, Abs format (unit mm)*
G04 Created by KiCad (PCBNEW 4.0.4+e1-6308~48~ubuntu16.04.1-stable) date Mon Dec 19 21:15:10 2016*
%MOMM*%
%LPD*%
G01*
G04 APERTURE LIST*
%ADD10C,0.100000*%
%ADD11R,1.597660X1.800860*%
%ADD12R,1.750000X0.450000*%
%ADD13R,1.000000X1.600000*%
%ADD14O,4.000000X1.600000*%
%ADD15C,1.800000*%
%ADD16C,1.600000*%
%ADD17R,2.032000X1.727200*%
%ADD18O,2.032000X1.727200*%
%ADD19C,0.600000*%
%ADD20C,0.250000*%
%ADD21C,0.254000*%
G04 APERTURE END LIST*
D10*
D11*
X17480140Y13350000D03*
X20319860Y13350000D03*
D12*
X14730000Y1805000D03*
X14730000Y2455000D03*
X14730000Y3105000D03*
X14730000Y3755000D03*
X14730000Y4405000D03*
X14730000Y5055000D03*
X14730000Y5705000D03*
X14730000Y6355000D03*
X14730000Y7005000D03*
X14730000Y7655000D03*
X14730000Y8305000D03*
X14730000Y8955000D03*
X14730000Y9605000D03*
X14730000Y10255000D03*
X7530000Y10255000D03*
X7530000Y9605000D03*
X7530000Y8955000D03*
X7530000Y8305000D03*
X7530000Y7655000D03*
X7530000Y7005000D03*
X7530000Y6355000D03*
X7530000Y5705000D03*
X7530000Y5055000D03*
X7530000Y4405000D03*
X7530000Y3755000D03*
X7530000Y3105000D03*
X7530000Y2455000D03*
X7530000Y1805000D03*
D13*
X7440000Y13310000D03*
X10440000Y13310000D03*
X12340000Y13320000D03*
X15340000Y13320000D03*
D11*
X17590140Y1748000D03*
X20429860Y1748000D03*
D14*
X2500000Y1890000D03*
X2500000Y13290000D03*
D15*
X2500000Y5340000D03*
X2500000Y9840000D03*
D16*
X4600000Y6590000D03*
X4600000Y8590000D03*
X4600000Y4090000D03*
X4600000Y11090000D03*
D17*
X17994000Y10130000D03*
D18*
X17994000Y7590000D03*
X17994000Y5050000D03*
D19*
X12721200Y5705000D03*
X17222900Y3177900D03*
X17770800Y11927200D03*
X16135800Y3036700D03*
X9031600Y10106100D03*
X19962400Y3832300D03*
D20*
X7530000Y7005000D02*
X6329700Y7005000D01*
X7530000Y7005000D02*
X8730300Y7005000D01*
X6329700Y5819700D02*
X4600000Y4090000D01*
X6329700Y7005000D02*
X6329700Y5819700D01*
X8730300Y7641900D02*
X8730300Y7005000D01*
X12340000Y11251600D02*
X8730300Y7641900D01*
X12340000Y13320000D02*
X12340000Y11251600D01*
X11265300Y14032100D02*
X11265300Y13310000D01*
X11678600Y14445400D02*
X11265300Y14032100D01*
X13389300Y14445400D02*
X11678600Y14445400D01*
X14514700Y13320000D02*
X13389300Y14445400D01*
X10440000Y13310000D02*
X11265300Y13310000D01*
X7530000Y8305000D02*
X8730300Y8305000D01*
X7530000Y6355000D02*
X8730300Y6355000D01*
X10440000Y13310000D02*
X9614700Y13310000D01*
X4600000Y12230100D02*
X4600000Y11090000D01*
X6805200Y14435300D02*
X4600000Y12230100D01*
X8489400Y14435300D02*
X6805200Y14435300D01*
X9614700Y13310000D02*
X8489400Y14435300D01*
X9614700Y12082500D02*
X9614700Y13310000D01*
X9677500Y12019700D02*
X9614700Y12082500D01*
X9677500Y9252200D02*
X9677500Y12019700D01*
X8730300Y8305000D02*
X9677500Y9252200D01*
X14927400Y13320000D02*
X14601900Y13320000D01*
X14601900Y13320000D02*
X14514700Y13320000D01*
X15340000Y13320000D02*
X14927400Y13320000D01*
X9251000Y6875700D02*
X8730300Y6355000D01*
X9251000Y7207400D02*
X9251000Y6875700D01*
X14601900Y12558300D02*
X9251000Y7207400D01*
X14601900Y13320000D02*
X14601900Y12558300D01*
X12721200Y5705000D02*
X14730000Y5705000D01*
X10771200Y3755000D02*
X12721200Y5705000D01*
X7530000Y3755000D02*
X10771200Y3755000D01*
X19305800Y1186000D02*
X19305800Y1748000D01*
X18642000Y522200D02*
X19305800Y1186000D01*
X7212700Y522200D02*
X18642000Y522200D01*
X6329700Y1405200D02*
X7212700Y522200D01*
X6329700Y5055000D02*
X6329700Y1405200D01*
X7530000Y5055000D02*
X6329700Y5055000D01*
X20429900Y1748000D02*
X19305800Y1748000D01*
X17427100Y2973700D02*
X17590100Y2973700D01*
X17222900Y3177900D02*
X17427100Y2973700D01*
X17590100Y1748000D02*
X17590100Y2973700D01*
X17573700Y12124300D02*
X17770800Y11927200D01*
X17480100Y12124300D02*
X17573700Y12124300D01*
X17480100Y13350000D02*
X17480100Y12124300D01*
X19195800Y13912000D02*
X19195800Y13350000D01*
X18532000Y14575800D02*
X19195800Y13912000D01*
X16522600Y14575800D02*
X18532000Y14575800D01*
X16260700Y14313900D02*
X16522600Y14575800D01*
X16260700Y12480600D02*
X16260700Y14313900D01*
X15532500Y11752400D02*
X16260700Y12480600D01*
X14627500Y11752400D02*
X15532500Y11752400D01*
X13485900Y10610800D02*
X14627500Y11752400D01*
X13485900Y10416200D02*
X13485900Y10610800D01*
X8774700Y5705000D02*
X13485900Y10416200D01*
X7530000Y5705000D02*
X8774700Y5705000D01*
X20319900Y13350000D02*
X19195800Y13350000D01*
X16135800Y2010500D02*
X15930300Y1805000D01*
X16135800Y3036700D02*
X16135800Y2010500D01*
X14730000Y1805000D02*
X15930300Y1805000D01*
X15930300Y7397500D02*
X15930300Y4405000D01*
X17473900Y8941100D02*
X15930300Y7397500D01*
X17994000Y8941100D02*
X17473900Y8941100D01*
X17994000Y10130000D02*
X17994000Y8941100D01*
X14730000Y4405000D02*
X15930300Y4405000D01*
X6265000Y10255000D02*
X7530000Y10255000D01*
X4600000Y8590000D02*
X6265000Y10255000D01*
X6329700Y8319700D02*
X6329700Y9605000D01*
X4600000Y6590000D02*
X6329700Y8319700D01*
X7530000Y9605000D02*
X6329700Y9605000D01*
X7530000Y8955000D02*
X8730300Y8955000D01*
X9031600Y9256300D02*
X9031600Y10106100D01*
X8730300Y8955000D02*
X9031600Y9256300D01*
X9031600Y10593100D02*
X7440000Y12184700D01*
X9031600Y10106100D02*
X9031600Y10593100D01*
X7440000Y13310000D02*
X7440000Y12184700D01*
X14730000Y3755000D02*
X15930300Y3755000D01*
X16007600Y3832300D02*
X19962400Y3832300D01*
X15930300Y3755000D02*
X16007600Y3832300D01*
D21*
G36*
X13207560Y8730000D02*
X13227067Y8626329D01*
X13207560Y8530000D01*
X13207560Y8080000D01*
X13227067Y7976329D01*
X13207560Y7880000D01*
X13207560Y7430000D01*
X13227067Y7326329D01*
X13207560Y7230000D01*
X13207560Y6780000D01*
X13227067Y6676329D01*
X13207560Y6580000D01*
X13207560Y6130000D01*
X13220980Y6058677D01*
X13220000Y6056310D01*
X13220000Y5976250D01*
X13240312Y5955938D01*
X13251838Y5894683D01*
X13375329Y5702773D01*
X13258569Y5531890D01*
X13243442Y5457192D01*
X13220000Y5433750D01*
X13220000Y5353690D01*
X13221667Y5349665D01*
X13207560Y5280000D01*
X13207560Y4830000D01*
X13227067Y4726329D01*
X13207560Y4630000D01*
X13207560Y4180000D01*
X13227067Y4076329D01*
X13207560Y3980000D01*
X13207560Y3530000D01*
X13227067Y3426329D01*
X13207560Y3330000D01*
X13207560Y2880000D01*
X13227067Y2776329D01*
X13207560Y2680000D01*
X13207560Y2230000D01*
X13227067Y2126329D01*
X13207560Y2030000D01*
X13207560Y1580000D01*
X13251838Y1344683D01*
X13292045Y1282200D01*
X8970062Y1282200D01*
X9001431Y1328110D01*
X9052440Y1580000D01*
X9052440Y2030000D01*
X9032933Y2133671D01*
X9052440Y2230000D01*
X9052440Y2680000D01*
X9032933Y2783671D01*
X9052440Y2880000D01*
X9052440Y3330000D01*
X9039020Y3401323D01*
X9040000Y3403690D01*
X9040000Y3483750D01*
X9019688Y3504062D01*
X9008162Y3565317D01*
X8884671Y3757227D01*
X9001431Y3928110D01*
X9016558Y4002808D01*
X9040000Y4026250D01*
X9040000Y4106310D01*
X9038333Y4110335D01*
X9052440Y4180000D01*
X9052440Y4630000D01*
X9032933Y4733671D01*
X9052440Y4830000D01*
X9052440Y5000246D01*
X9065539Y5002852D01*
X9312101Y5167599D01*
X13207560Y9063058D01*
X13207560Y8730000D01*
X13207560Y8730000D01*
G37*
X13207560Y8730000D02*
X13227067Y8626329D01*
X13207560Y8530000D01*
X13207560Y8080000D01*
X13227067Y7976329D01*
X13207560Y7880000D01*
X13207560Y7430000D01*
X13227067Y7326329D01*
X13207560Y7230000D01*
X13207560Y6780000D01*
X13227067Y6676329D01*
X13207560Y6580000D01*
X13207560Y6130000D01*
X13220980Y6058677D01*
X13220000Y6056310D01*
X13220000Y5976250D01*
X13240312Y5955938D01*
X13251838Y5894683D01*
X13375329Y5702773D01*
X13258569Y5531890D01*
X13243442Y5457192D01*
X13220000Y5433750D01*
X13220000Y5353690D01*
X13221667Y5349665D01*
X13207560Y5280000D01*
X13207560Y4830000D01*
X13227067Y4726329D01*
X13207560Y4630000D01*
X13207560Y4180000D01*
X13227067Y4076329D01*
X13207560Y3980000D01*
X13207560Y3530000D01*
X13227067Y3426329D01*
X13207560Y3330000D01*
X13207560Y2880000D01*
X13227067Y2776329D01*
X13207560Y2680000D01*
X13207560Y2230000D01*
X13227067Y2126329D01*
X13207560Y2030000D01*
X13207560Y1580000D01*
X13251838Y1344683D01*
X13292045Y1282200D01*
X8970062Y1282200D01*
X9001431Y1328110D01*
X9052440Y1580000D01*
X9052440Y2030000D01*
X9032933Y2133671D01*
X9052440Y2230000D01*
X9052440Y2680000D01*
X9032933Y2783671D01*
X9052440Y2880000D01*
X9052440Y3330000D01*
X9039020Y3401323D01*
X9040000Y3403690D01*
X9040000Y3483750D01*
X9019688Y3504062D01*
X9008162Y3565317D01*
X8884671Y3757227D01*
X9001431Y3928110D01*
X9016558Y4002808D01*
X9040000Y4026250D01*
X9040000Y4106310D01*
X9038333Y4110335D01*
X9052440Y4180000D01*
X9052440Y4630000D01*
X9032933Y4733671D01*
X9052440Y4830000D01*
X9052440Y5000246D01*
X9065539Y5002852D01*
X9312101Y5167599D01*
X13207560Y9063058D01*
X13207560Y8730000D01*
G36*
X18917868Y12214253D02*
X19056940Y11998129D01*
X19269140Y11853139D01*
X19521030Y11802130D01*
X21094000Y11802130D01*
X21094000Y3295870D01*
X20748478Y3295870D01*
X20754592Y3301973D01*
X20897238Y3645501D01*
X20897562Y4017467D01*
X20755517Y4361243D01*
X20492727Y4624492D01*
X20149199Y4767138D01*
X19777233Y4767462D01*
X19599718Y4694115D01*
X19480217Y4923000D01*
X18121000Y4923000D01*
X18121000Y4903000D01*
X17867000Y4903000D01*
X17867000Y4923000D01*
X17847000Y4923000D01*
X17847000Y5177000D01*
X17867000Y5177000D01*
X17867000Y5197000D01*
X18121000Y5197000D01*
X18121000Y5177000D01*
X19480217Y5177000D01*
X19601358Y5409026D01*
X19598709Y5424791D01*
X19344732Y5952036D01*
X18928931Y6323539D01*
X19238415Y6530330D01*
X19563271Y7016511D01*
X19677345Y7590000D01*
X19563271Y8163489D01*
X19238415Y8649670D01*
X19224087Y8659243D01*
X19245317Y8663238D01*
X19461441Y8802310D01*
X19606431Y9014510D01*
X19657440Y9266400D01*
X19657440Y10993600D01*
X19613162Y11228917D01*
X19474090Y11445041D01*
X19261890Y11590031D01*
X19010000Y11641040D01*
X18664380Y11641040D01*
X18705638Y11740401D01*
X18705838Y11969668D01*
X18730411Y11985480D01*
X18875401Y12197680D01*
X18899030Y12314366D01*
X18917868Y12214253D01*
X18917868Y12214253D01*
G37*
X18917868Y12214253D02*
X19056940Y11998129D01*
X19269140Y11853139D01*
X19521030Y11802130D01*
X21094000Y11802130D01*
X21094000Y3295870D01*
X20748478Y3295870D01*
X20754592Y3301973D01*
X20897238Y3645501D01*
X20897562Y4017467D01*
X20755517Y4361243D01*
X20492727Y4624492D01*
X20149199Y4767138D01*
X19777233Y4767462D01*
X19599718Y4694115D01*
X19480217Y4923000D01*
X18121000Y4923000D01*
X18121000Y4903000D01*
X17867000Y4903000D01*
X17867000Y4923000D01*
X17847000Y4923000D01*
X17847000Y5177000D01*
X17867000Y5177000D01*
X17867000Y5197000D01*
X18121000Y5197000D01*
X18121000Y5177000D01*
X19480217Y5177000D01*
X19601358Y5409026D01*
X19598709Y5424791D01*
X19344732Y5952036D01*
X18928931Y6323539D01*
X19238415Y6530330D01*
X19563271Y7016511D01*
X19677345Y7590000D01*
X19563271Y8163489D01*
X19238415Y8649670D01*
X19224087Y8659243D01*
X19245317Y8663238D01*
X19461441Y8802310D01*
X19606431Y9014510D01*
X19657440Y9266400D01*
X19657440Y10993600D01*
X19613162Y11228917D01*
X19474090Y11445041D01*
X19261890Y11590031D01*
X19010000Y11641040D01*
X18664380Y11641040D01*
X18705638Y11740401D01*
X18705838Y11969668D01*
X18730411Y11985480D01*
X18875401Y12197680D01*
X18899030Y12314366D01*
X18917868Y12214253D01*
G36*
X9401673Y14469699D02*
X9305000Y14236310D01*
X9305000Y13595750D01*
X9463750Y13437000D01*
X10313000Y13437000D01*
X10313000Y13457000D01*
X10567000Y13457000D01*
X10567000Y13437000D01*
X10587000Y13437000D01*
X10587000Y13183000D01*
X10567000Y13183000D01*
X10567000Y12033750D01*
X10725750Y11875000D01*
X11066309Y11875000D01*
X11299698Y11971673D01*
X11388192Y12060167D01*
X11580000Y11929110D01*
X11580000Y11566402D01*
X9966467Y9952869D01*
X9966762Y10291267D01*
X9824717Y10635043D01*
X9772940Y10686911D01*
X9733748Y10883940D01*
X9569001Y11130501D01*
X8497853Y12201649D01*
X8536431Y12258110D01*
X8587440Y12510000D01*
X8587440Y13024250D01*
X9305000Y13024250D01*
X9305000Y12383690D01*
X9401673Y12150301D01*
X9580302Y11971673D01*
X9813691Y11875000D01*
X10154250Y11875000D01*
X10313000Y12033750D01*
X10313000Y13183000D01*
X9463750Y13183000D01*
X9305000Y13024250D01*
X8587440Y13024250D01*
X8587440Y14110000D01*
X8543162Y14345317D01*
X8443626Y14500000D01*
X9431974Y14500000D01*
X9401673Y14469699D01*
X9401673Y14469699D01*
G37*
X9401673Y14469699D02*
X9305000Y14236310D01*
X9305000Y13595750D01*
X9463750Y13437000D01*
X10313000Y13437000D01*
X10313000Y13457000D01*
X10567000Y13457000D01*
X10567000Y13437000D01*
X10587000Y13437000D01*
X10587000Y13183000D01*
X10567000Y13183000D01*
X10567000Y12033750D01*
X10725750Y11875000D01*
X11066309Y11875000D01*
X11299698Y11971673D01*
X11388192Y12060167D01*
X11580000Y11929110D01*
X11580000Y11566402D01*
X9966467Y9952869D01*
X9966762Y10291267D01*
X9824717Y10635043D01*
X9772940Y10686911D01*
X9733748Y10883940D01*
X9569001Y11130501D01*
X8497853Y12201649D01*
X8536431Y12258110D01*
X8587440Y12510000D01*
X8587440Y13024250D01*
X9305000Y13024250D01*
X9305000Y12383690D01*
X9401673Y12150301D01*
X9580302Y11971673D01*
X9813691Y11875000D01*
X10154250Y11875000D01*
X10313000Y12033750D01*
X10313000Y13183000D01*
X9463750Y13183000D01*
X9305000Y13024250D01*
X8587440Y13024250D01*
X8587440Y14110000D01*
X8543162Y14345317D01*
X8443626Y14500000D01*
X9431974Y14500000D01*
X9401673Y14469699D01*
G36*
X6343569Y14361890D02*
X6292560Y14110000D01*
X6292560Y12510000D01*
X6336838Y12274683D01*
X6475910Y12058559D01*
X6688110Y11913569D01*
X6735855Y11903900D01*
X6737852Y11893861D01*
X6902599Y11647299D01*
X7422458Y11127440D01*
X6655000Y11127440D01*
X6419683Y11083162D01*
X6313756Y11015000D01*
X6265000Y11015000D01*
X6042317Y10970705D01*
X6019778Y11443454D01*
X5853864Y11844005D01*
X5607745Y11918139D01*
X4779605Y11090000D01*
X4793748Y11075858D01*
X4614142Y10896252D01*
X4600000Y10910395D01*
X4585858Y10896252D01*
X4406252Y11075858D01*
X4420395Y11090000D01*
X4406252Y11104142D01*
X4585858Y11283748D01*
X4600000Y11269605D01*
X5428139Y12097745D01*
X5354005Y12343864D01*
X4917071Y12500915D01*
X5077390Y12740849D01*
X5186623Y13290000D01*
X5077390Y13839151D01*
X4766321Y14304698D01*
X4474031Y14500000D01*
X6437935Y14500000D01*
X6343569Y14361890D01*
X6343569Y14361890D01*
G37*
X6343569Y14361890D02*
X6292560Y14110000D01*
X6292560Y12510000D01*
X6336838Y12274683D01*
X6475910Y12058559D01*
X6688110Y11913569D01*
X6735855Y11903900D01*
X6737852Y11893861D01*
X6902599Y11647299D01*
X7422458Y11127440D01*
X6655000Y11127440D01*
X6419683Y11083162D01*
X6313756Y11015000D01*
X6265000Y11015000D01*
X6042317Y10970705D01*
X6019778Y11443454D01*
X5853864Y11844005D01*
X5607745Y11918139D01*
X4779605Y11090000D01*
X4793748Y11075858D01*
X4614142Y10896252D01*
X4600000Y10910395D01*
X4585858Y10896252D01*
X4406252Y11075858D01*
X4420395Y11090000D01*
X4406252Y11104142D01*
X4585858Y11283748D01*
X4600000Y11269605D01*
X5428139Y12097745D01*
X5354005Y12343864D01*
X4917071Y12500915D01*
X5077390Y12740849D01*
X5186623Y13290000D01*
X5077390Y13839151D01*
X4766321Y14304698D01*
X4474031Y14500000D01*
X6437935Y14500000D01*
X6343569Y14361890D01*
G36*
X14301673Y14479699D02*
X14205000Y14246310D01*
X14205000Y13605750D01*
X14363750Y13447000D01*
X15213000Y13447000D01*
X15213000Y13467000D01*
X15467000Y13467000D01*
X15467000Y13447000D01*
X15487000Y13447000D01*
X15487000Y13193000D01*
X15467000Y13193000D01*
X15467000Y13173000D01*
X15213000Y13173000D01*
X15213000Y13193000D01*
X14363750Y13193000D01*
X14205000Y13034250D01*
X14205000Y12393690D01*
X14213797Y12372453D01*
X14090099Y12289801D01*
X13100000Y11299702D01*
X13100000Y11932721D01*
X13291441Y12055910D01*
X13436431Y12268110D01*
X13487440Y12520000D01*
X13487440Y14120000D01*
X13443162Y14355317D01*
X13350061Y14500000D01*
X14321974Y14500000D01*
X14301673Y14479699D01*
X14301673Y14479699D01*
G37*
X14301673Y14479699D02*
X14205000Y14246310D01*
X14205000Y13605750D01*
X14363750Y13447000D01*
X15213000Y13447000D01*
X15213000Y13467000D01*
X15467000Y13467000D01*
X15467000Y13447000D01*
X15487000Y13447000D01*
X15487000Y13193000D01*
X15467000Y13193000D01*
X15467000Y13173000D01*
X15213000Y13173000D01*
X15213000Y13193000D01*
X14363750Y13193000D01*
X14205000Y13034250D01*
X14205000Y12393690D01*
X14213797Y12372453D01*
X14090099Y12289801D01*
X13100000Y11299702D01*
X13100000Y11932721D01*
X13291441Y12055910D01*
X13436431Y12268110D01*
X13487440Y12520000D01*
X13487440Y14120000D01*
X13443162Y14355317D01*
X13350061Y14500000D01*
X14321974Y14500000D01*
X14301673Y14479699D01*
M02*
