G04 #@! TF.FileFunction,Legend,Top*
%FSLAX46Y46*%
G04 Gerber Fmt 4.6, Leading zero omitted, Abs format (unit mm)*
G04 Created by KiCad (PCBNEW 4.0.4+e1-6308~48~ubuntu16.04.1-stable) date Mon Dec 19 21:15:10 2016*
%MOMM*%
%LPD*%
G01*
G04 APERTURE LIST*
%ADD10C,0.100000*%
%ADD11C,0.150000*%
G04 APERTURE END LIST*
D10*
D11*
X21050000Y14400000D02*
X17450000Y14400000D01*
X21050000Y12300000D02*
X17450000Y12300000D01*
X19000000Y13050000D02*
X19000000Y13650000D01*
X19000000Y13650000D02*
X19300000Y13350000D01*
X19300000Y13350000D02*
X19100000Y13150000D01*
X19100000Y13150000D02*
X19100000Y13400000D01*
X19100000Y13400000D02*
X19150000Y13350000D01*
X19400000Y12850000D02*
X19400000Y13850000D01*
X18900000Y13350000D02*
X18400000Y13350000D01*
X19400000Y13350000D02*
X18900000Y12850000D01*
X18900000Y12850000D02*
X18900000Y13850000D01*
X18900000Y13850000D02*
X19400000Y13350000D01*
X14005000Y705000D02*
X14005000Y1280000D01*
X8255000Y705000D02*
X8255000Y1355000D01*
X8255000Y11355000D02*
X8255000Y10705000D01*
X14005000Y11355000D02*
X14005000Y10705000D01*
X14005000Y705000D02*
X8255000Y705000D01*
X14005000Y11355000D02*
X8255000Y11355000D01*
X14005000Y1280000D02*
X15605000Y1280000D01*
X9940000Y14335000D02*
X7940000Y14335000D01*
X7940000Y12285000D02*
X9940000Y12285000D01*
X14840000Y14345000D02*
X12840000Y14345000D01*
X12840000Y12295000D02*
X14840000Y12295000D01*
X21160000Y2798000D02*
X17560000Y2798000D01*
X21160000Y698000D02*
X17560000Y698000D01*
X19110000Y1448000D02*
X19110000Y2048000D01*
X19110000Y2048000D02*
X19410000Y1748000D01*
X19410000Y1748000D02*
X19210000Y1548000D01*
X19210000Y1548000D02*
X19210000Y1798000D01*
X19210000Y1798000D02*
X19260000Y1748000D01*
X19510000Y1248000D02*
X19510000Y2248000D01*
X19010000Y1748000D02*
X18510000Y1748000D01*
X19510000Y1748000D02*
X19010000Y1248000D01*
X19010000Y1248000D02*
X19010000Y2248000D01*
X19010000Y2248000D02*
X19510000Y1748000D01*
X500000Y14590000D02*
X5800000Y14590000D01*
X5800000Y14590000D02*
X5800000Y590000D01*
X5800000Y590000D02*
X500000Y590000D01*
X16724000Y8860000D02*
X16724000Y3780000D01*
X16724000Y3780000D02*
X19264000Y3780000D01*
X19264000Y3780000D02*
X19264000Y8860000D01*
X19544000Y11680000D02*
X19544000Y10130000D01*
X19264000Y8860000D02*
X16724000Y8860000D01*
X16444000Y10130000D02*
X16444000Y11680000D01*
X16444000Y11680000D02*
X19544000Y11680000D01*
M02*
