G04 #@! TF.FileFunction,Legend,Bot*
%FSLAX46Y46*%
G04 Gerber Fmt 4.6, Leading zero omitted, Abs format (unit mm)*
G04 Created by KiCad (PCBNEW 4.0.4+e1-6308~48~ubuntu16.04.1-stable) date Mon Dec 19 21:24:52 2016*
%MOMM*%
%LPD*%
G01*
G04 APERTURE LIST*
%ADD10C,0.100000*%
%ADD11C,0.300000*%
%ADD12C,0.200000*%
%ADD13C,0.150000*%
G04 APERTURE END LIST*
D10*
D11*
X20141143Y5800000D02*
X20284000Y5871429D01*
X20498286Y5871429D01*
X20712571Y5800000D01*
X20855429Y5657143D01*
X20926857Y5514286D01*
X20998286Y5228571D01*
X20998286Y5014286D01*
X20926857Y4728571D01*
X20855429Y4585714D01*
X20712571Y4442857D01*
X20498286Y4371429D01*
X20355429Y4371429D01*
X20141143Y4442857D01*
X20069714Y4514286D01*
X20069714Y5014286D01*
X20355429Y5014286D01*
X20962571Y9522857D02*
X20748285Y9451429D01*
X20391142Y9451429D01*
X20248285Y9522857D01*
X20176856Y9594286D01*
X20105428Y9737143D01*
X20105428Y9880000D01*
X20176856Y10022857D01*
X20248285Y10094286D01*
X20391142Y10165714D01*
X20676856Y10237143D01*
X20819714Y10308571D01*
X20891142Y10380000D01*
X20962571Y10522857D01*
X20962571Y10665714D01*
X20891142Y10808571D01*
X20819714Y10880000D01*
X20676856Y10951429D01*
X20319714Y10951429D01*
X20105428Y10880000D01*
D12*
X14223428Y12979619D02*
X14556762Y13455810D01*
X14794857Y12979619D02*
X14794857Y13979619D01*
X14413904Y13979619D01*
X14318666Y13932000D01*
X14271047Y13884381D01*
X14223428Y13789143D01*
X14223428Y13646286D01*
X14271047Y13551048D01*
X14318666Y13503429D01*
X14413904Y13455810D01*
X14794857Y13455810D01*
X13413904Y13027238D02*
X13509142Y12979619D01*
X13699619Y12979619D01*
X13794857Y13027238D01*
X13842476Y13122476D01*
X13842476Y13503429D01*
X13794857Y13598667D01*
X13699619Y13646286D01*
X13509142Y13646286D01*
X13413904Y13598667D01*
X13366285Y13503429D01*
X13366285Y13408190D01*
X13842476Y13312952D01*
X13032952Y13646286D02*
X12794857Y12979619D01*
X12556761Y13646286D01*
X10890094Y12979619D02*
X11461523Y12979619D01*
X11175809Y12979619D02*
X11175809Y13979619D01*
X11271047Y13836762D01*
X11366285Y13741524D01*
X11461523Y13693905D01*
X10461523Y13074857D02*
X10413904Y13027238D01*
X10461523Y12979619D01*
X10509142Y13027238D01*
X10461523Y13074857D01*
X10461523Y12979619D01*
X9794857Y13979619D02*
X9699618Y13979619D01*
X9604380Y13932000D01*
X9556761Y13884381D01*
X9509142Y13789143D01*
X9461523Y13598667D01*
X9461523Y13360571D01*
X9509142Y13170095D01*
X9556761Y13074857D01*
X9604380Y13027238D01*
X9699618Y12979619D01*
X9794857Y12979619D01*
X9890095Y13027238D01*
X9937714Y13074857D01*
X9985333Y13170095D01*
X10032952Y13360571D01*
X10032952Y13598667D01*
X9985333Y13789143D01*
X9937714Y13884381D01*
X9890095Y13932000D01*
X9794857Y13979619D01*
D11*
X6504571Y11335999D02*
X7718857Y11335999D01*
X7861714Y11264571D01*
X7933143Y11193142D01*
X8004571Y11050285D01*
X8004571Y10764571D01*
X7933143Y10621713D01*
X7861714Y10550285D01*
X7718857Y10478856D01*
X6504571Y10478856D01*
X7933143Y9835999D02*
X8004571Y9621713D01*
X8004571Y9264570D01*
X7933143Y9121713D01*
X7861714Y9050284D01*
X7718857Y8978856D01*
X7576000Y8978856D01*
X7433143Y9050284D01*
X7361714Y9121713D01*
X7290286Y9264570D01*
X7218857Y9550284D01*
X7147429Y9693142D01*
X7076000Y9764570D01*
X6933143Y9835999D01*
X6790286Y9835999D01*
X6647429Y9764570D01*
X6576000Y9693142D01*
X6504571Y9550284D01*
X6504571Y9193142D01*
X6576000Y8978856D01*
X7218857Y7835999D02*
X7290286Y7621713D01*
X7361714Y7550285D01*
X7504571Y7478856D01*
X7718857Y7478856D01*
X7861714Y7550285D01*
X7933143Y7621713D01*
X8004571Y7764571D01*
X8004571Y8335999D01*
X6504571Y8335999D01*
X6504571Y7835999D01*
X6576000Y7693142D01*
X6647429Y7621713D01*
X6790286Y7550285D01*
X6933143Y7550285D01*
X7076000Y7621713D01*
X7147429Y7693142D01*
X7218857Y7835999D01*
X7218857Y8335999D01*
X7004571Y7050285D02*
X7004571Y6478856D01*
X6504571Y6835999D02*
X7790286Y6835999D01*
X7933143Y6764571D01*
X8004571Y6621713D01*
X8004571Y6478856D01*
X7933143Y5407428D02*
X8004571Y5550285D01*
X8004571Y5835999D01*
X7933143Y5978856D01*
X7790286Y6050285D01*
X7218857Y6050285D01*
X7076000Y5978856D01*
X7004571Y5835999D01*
X7004571Y5550285D01*
X7076000Y5407428D01*
X7218857Y5335999D01*
X7361714Y5335999D01*
X7504571Y6050285D01*
X8004571Y4478856D02*
X7933143Y4621714D01*
X7790286Y4693142D01*
X6504571Y4693142D01*
X7933143Y3336000D02*
X8004571Y3478857D01*
X8004571Y3764571D01*
X7933143Y3907428D01*
X7790286Y3978857D01*
X7218857Y3978857D01*
X7076000Y3907428D01*
X7004571Y3764571D01*
X7004571Y3478857D01*
X7076000Y3336000D01*
X7218857Y3264571D01*
X7361714Y3264571D01*
X7504571Y3978857D01*
D13*
X12986000Y766000D02*
X12986000Y9066000D01*
X9286000Y766000D02*
X9286000Y9066000D01*
X12986000Y766000D02*
X9286000Y766000D01*
X18010000Y673000D02*
X20010000Y673000D01*
X20010000Y2823000D02*
X18010000Y2823000D01*
X17900000Y12275000D02*
X19900000Y12275000D01*
X19900000Y14425000D02*
X17900000Y14425000D01*
X14057000Y10130000D02*
X14057000Y10384000D01*
X14057000Y10384000D02*
X16343000Y10384000D01*
X16343000Y10384000D02*
X16343000Y10130000D01*
X14057000Y10130000D02*
X16343000Y10130000D01*
X16343000Y10130000D02*
X16343000Y8479000D01*
X14057000Y6701000D02*
X14057000Y5050000D01*
X14057000Y5050000D02*
X16343000Y5050000D01*
X16343000Y5050000D02*
X16343000Y6701000D01*
X14057000Y8479000D02*
X14057000Y10130000D01*
M02*
