G04 #@! TF.FileFunction,Copper,L2,Bot,Signal*
%FSLAX46Y46*%
G04 Gerber Fmt 4.6, Leading zero omitted, Abs format (unit mm)*
G04 Created by KiCad (PCBNEW 4.0.4+e1-6308~48~ubuntu16.04.1-stable) date Mon Dec 19 21:24:52 2016*
%MOMM*%
%LPD*%
G01*
G04 APERTURE LIST*
%ADD10C,0.100000*%
%ADD11R,2.500000X3.750000*%
%ADD12R,0.900000X1.700000*%
%ADD13R,2.032000X1.524000*%
%ADD14O,4.000000X1.600000*%
%ADD15C,1.800000*%
%ADD16C,1.600000*%
%ADD17R,2.032000X1.727200*%
%ADD18O,2.032000X1.727200*%
%ADD19C,0.600000*%
%ADD20C,0.250000*%
%ADD21C,0.254000*%
G04 APERTURE END LIST*
D10*
D11*
X11136000Y2941000D03*
X11136000Y9191000D03*
D12*
X20460000Y1748000D03*
X17560000Y1748000D03*
X20350000Y13350000D03*
X17450000Y13350000D03*
D13*
X15200000Y9241000D03*
X15200000Y5939000D03*
D14*
X2500000Y1890000D03*
X2500000Y13290000D03*
D15*
X2500000Y5340000D03*
X2500000Y9840000D03*
D16*
X4600000Y6590000D03*
X4600000Y8590000D03*
X4600000Y4090000D03*
X4600000Y11090000D03*
D17*
X17994000Y10130000D03*
D18*
X17994000Y7590000D03*
X17994000Y5050000D03*
D19*
X12721200Y5705000D03*
X17222900Y3177900D03*
X17770800Y11927200D03*
X16135800Y3036700D03*
X9031600Y10106100D03*
X19962400Y3832300D03*
D20*
X8411700Y4090000D02*
X9560700Y2941000D01*
X4600000Y4090000D02*
X8411700Y4090000D01*
X11136000Y2941000D02*
X9560700Y2941000D01*
X11136000Y9191000D02*
X12711300Y9191000D01*
X17994000Y5050000D02*
X17994000Y6238900D01*
X6499000Y9191000D02*
X11136000Y9191000D01*
X4600000Y11090000D02*
X6499000Y9191000D01*
X12721200Y6050300D02*
X12721200Y5705000D01*
X14286600Y7615700D02*
X12721200Y6050300D01*
X12711300Y9191000D02*
X14286600Y7615700D01*
X17147300Y6238900D02*
X17994000Y6238900D01*
X15770500Y7615700D02*
X17147300Y6238900D01*
X14286600Y7615700D02*
X15770500Y7615700D01*
X17477500Y2923300D02*
X17222900Y3177900D01*
X17560000Y2923300D02*
X17477500Y2923300D01*
X17560000Y1748000D02*
X17560000Y2923300D01*
X17523300Y12174700D02*
X17770800Y11927200D01*
X17450000Y12174700D02*
X17523300Y12174700D01*
X17450000Y13350000D02*
X17450000Y12174700D01*
X16135800Y3915900D02*
X16135800Y3036700D01*
X15200000Y4851700D02*
X16135800Y3915900D01*
X15200000Y5939000D02*
X15200000Y4851700D01*
X16541300Y10018600D02*
X16652700Y10130000D01*
X16541300Y9241000D02*
X16541300Y10018600D01*
X17994000Y10130000D02*
X16652700Y10130000D01*
X15200000Y9241000D02*
X16541300Y9241000D01*
X9031600Y10680900D02*
X9031600Y10106100D01*
X12876100Y14525400D02*
X9031600Y10680900D01*
X18399300Y14525400D02*
X12876100Y14525400D01*
X19574700Y13350000D02*
X18399300Y14525400D01*
X20350000Y13350000D02*
X19962400Y13350000D01*
X19962400Y13350000D02*
X19574700Y13350000D01*
X20460000Y1748000D02*
X20460000Y2923300D01*
X19962400Y13350000D02*
X19962400Y3832300D01*
X19962400Y3420900D02*
X20460000Y2923300D01*
X19962400Y3832300D02*
X19962400Y3420900D01*
D21*
G36*
X8494199Y11218301D02*
X8329452Y10971739D01*
X8271600Y10680900D01*
X8271600Y10668563D01*
X8239408Y10636427D01*
X8096762Y10292899D01*
X8096438Y9920933D01*
X8238483Y9577157D01*
X8501273Y9313908D01*
X8844801Y9171262D01*
X9216767Y9170938D01*
X9251000Y9185083D01*
X9251000Y9063998D01*
X9409748Y9063998D01*
X9251000Y8905250D01*
X9251000Y7189691D01*
X9347673Y6956302D01*
X9526301Y6777673D01*
X9759690Y6681000D01*
X10850250Y6681000D01*
X11009000Y6839750D01*
X11009000Y9064000D01*
X11263000Y9064000D01*
X11263000Y6839750D01*
X11421750Y6681000D01*
X12512310Y6681000D01*
X12745699Y6777673D01*
X12924327Y6956302D01*
X13021000Y7189691D01*
X13021000Y8905250D01*
X12862250Y9064000D01*
X11263000Y9064000D01*
X11009000Y9064000D01*
X10989000Y9064000D01*
X10989000Y9318000D01*
X11009000Y9318000D01*
X11009000Y11542250D01*
X11263000Y11542250D01*
X11263000Y9318000D01*
X12862250Y9318000D01*
X13021000Y9476750D01*
X13021000Y11192309D01*
X12924327Y11425698D01*
X12745699Y11604327D01*
X12512310Y11701000D01*
X11421750Y11701000D01*
X11263000Y11542250D01*
X11009000Y11542250D01*
X10988376Y11562874D01*
X13190902Y13765400D01*
X16352560Y13765400D01*
X16352560Y12500000D01*
X16396838Y12264683D01*
X16535910Y12048559D01*
X16743275Y11906873D01*
X16747852Y11883861D01*
X16835647Y11752466D01*
X16835638Y11742033D01*
X16884627Y11623471D01*
X16742683Y11596762D01*
X16526559Y11457690D01*
X16381569Y11245490D01*
X16330560Y10993600D01*
X16330560Y10811234D01*
X16115299Y10667401D01*
X16098338Y10650440D01*
X14184000Y10650440D01*
X13948683Y10606162D01*
X13732559Y10467090D01*
X13587569Y10254890D01*
X13536560Y10003000D01*
X13536560Y8479000D01*
X13580838Y8243683D01*
X13719910Y8027559D01*
X13932110Y7882569D01*
X14184000Y7831560D01*
X16216000Y7831560D01*
X16364253Y7859456D01*
X16310655Y7590000D01*
X16364694Y7318329D01*
X16216000Y7348440D01*
X14184000Y7348440D01*
X13948683Y7304162D01*
X13732559Y7165090D01*
X13587569Y6952890D01*
X13536560Y6701000D01*
X13536560Y5177000D01*
X13580838Y4941683D01*
X13719910Y4725559D01*
X13932110Y4580569D01*
X14184000Y4529560D01*
X14518767Y4529560D01*
X14662599Y4314299D01*
X15375800Y3601098D01*
X15375800Y3599163D01*
X15343608Y3567027D01*
X15200962Y3223499D01*
X15200638Y2851533D01*
X15342683Y2507757D01*
X15605473Y2244508D01*
X15949001Y2101862D01*
X16320967Y2101538D01*
X16462560Y2160043D01*
X16462560Y898000D01*
X16503580Y680000D01*
X12890798Y680000D01*
X12982431Y814110D01*
X13033440Y1066000D01*
X13033440Y4816000D01*
X12989162Y5051317D01*
X12850090Y5267441D01*
X12637890Y5412431D01*
X12386000Y5463440D01*
X9886000Y5463440D01*
X9650683Y5419162D01*
X9434559Y5280090D01*
X9289569Y5067890D01*
X9238560Y4816000D01*
X9238560Y4337942D01*
X8949101Y4627401D01*
X8702539Y4792148D01*
X8411700Y4850000D01*
X5838646Y4850000D01*
X5817243Y4901800D01*
X5413923Y5305824D01*
X5332069Y5339813D01*
X5411800Y5372757D01*
X5815824Y5776077D01*
X6034750Y6303309D01*
X6035248Y6874187D01*
X5817243Y7401800D01*
X5629397Y7589974D01*
X5815824Y7776077D01*
X6034750Y8303309D01*
X6035248Y8874187D01*
X5817243Y9401800D01*
X5413923Y9805824D01*
X5347456Y9833423D01*
X5354005Y9836136D01*
X5428139Y10082255D01*
X4600000Y10910395D01*
X4585858Y10896252D01*
X4406252Y11075858D01*
X4420395Y11090000D01*
X4779605Y11090000D01*
X5607745Y10261861D01*
X5853864Y10335995D01*
X6046965Y10873223D01*
X6019778Y11443454D01*
X5853864Y11844005D01*
X5607745Y11918139D01*
X4779605Y11090000D01*
X4420395Y11090000D01*
X4406252Y11104142D01*
X4585858Y11283748D01*
X4600000Y11269605D01*
X5428139Y12097745D01*
X5354005Y12343864D01*
X4917071Y12500915D01*
X5077390Y12740849D01*
X5186623Y13290000D01*
X5077390Y13839151D01*
X4766321Y14304698D01*
X4474031Y14500000D01*
X11775898Y14500000D01*
X8494199Y11218301D01*
X8494199Y11218301D01*
G37*
X8494199Y11218301D02*
X8329452Y10971739D01*
X8271600Y10680900D01*
X8271600Y10668563D01*
X8239408Y10636427D01*
X8096762Y10292899D01*
X8096438Y9920933D01*
X8238483Y9577157D01*
X8501273Y9313908D01*
X8844801Y9171262D01*
X9216767Y9170938D01*
X9251000Y9185083D01*
X9251000Y9063998D01*
X9409748Y9063998D01*
X9251000Y8905250D01*
X9251000Y7189691D01*
X9347673Y6956302D01*
X9526301Y6777673D01*
X9759690Y6681000D01*
X10850250Y6681000D01*
X11009000Y6839750D01*
X11009000Y9064000D01*
X11263000Y9064000D01*
X11263000Y6839750D01*
X11421750Y6681000D01*
X12512310Y6681000D01*
X12745699Y6777673D01*
X12924327Y6956302D01*
X13021000Y7189691D01*
X13021000Y8905250D01*
X12862250Y9064000D01*
X11263000Y9064000D01*
X11009000Y9064000D01*
X10989000Y9064000D01*
X10989000Y9318000D01*
X11009000Y9318000D01*
X11009000Y11542250D01*
X11263000Y11542250D01*
X11263000Y9318000D01*
X12862250Y9318000D01*
X13021000Y9476750D01*
X13021000Y11192309D01*
X12924327Y11425698D01*
X12745699Y11604327D01*
X12512310Y11701000D01*
X11421750Y11701000D01*
X11263000Y11542250D01*
X11009000Y11542250D01*
X10988376Y11562874D01*
X13190902Y13765400D01*
X16352560Y13765400D01*
X16352560Y12500000D01*
X16396838Y12264683D01*
X16535910Y12048559D01*
X16743275Y11906873D01*
X16747852Y11883861D01*
X16835647Y11752466D01*
X16835638Y11742033D01*
X16884627Y11623471D01*
X16742683Y11596762D01*
X16526559Y11457690D01*
X16381569Y11245490D01*
X16330560Y10993600D01*
X16330560Y10811234D01*
X16115299Y10667401D01*
X16098338Y10650440D01*
X14184000Y10650440D01*
X13948683Y10606162D01*
X13732559Y10467090D01*
X13587569Y10254890D01*
X13536560Y10003000D01*
X13536560Y8479000D01*
X13580838Y8243683D01*
X13719910Y8027559D01*
X13932110Y7882569D01*
X14184000Y7831560D01*
X16216000Y7831560D01*
X16364253Y7859456D01*
X16310655Y7590000D01*
X16364694Y7318329D01*
X16216000Y7348440D01*
X14184000Y7348440D01*
X13948683Y7304162D01*
X13732559Y7165090D01*
X13587569Y6952890D01*
X13536560Y6701000D01*
X13536560Y5177000D01*
X13580838Y4941683D01*
X13719910Y4725559D01*
X13932110Y4580569D01*
X14184000Y4529560D01*
X14518767Y4529560D01*
X14662599Y4314299D01*
X15375800Y3601098D01*
X15375800Y3599163D01*
X15343608Y3567027D01*
X15200962Y3223499D01*
X15200638Y2851533D01*
X15342683Y2507757D01*
X15605473Y2244508D01*
X15949001Y2101862D01*
X16320967Y2101538D01*
X16462560Y2160043D01*
X16462560Y898000D01*
X16503580Y680000D01*
X12890798Y680000D01*
X12982431Y814110D01*
X13033440Y1066000D01*
X13033440Y4816000D01*
X12989162Y5051317D01*
X12850090Y5267441D01*
X12637890Y5412431D01*
X12386000Y5463440D01*
X9886000Y5463440D01*
X9650683Y5419162D01*
X9434559Y5280090D01*
X9289569Y5067890D01*
X9238560Y4816000D01*
X9238560Y4337942D01*
X8949101Y4627401D01*
X8702539Y4792148D01*
X8411700Y4850000D01*
X5838646Y4850000D01*
X5817243Y4901800D01*
X5413923Y5305824D01*
X5332069Y5339813D01*
X5411800Y5372757D01*
X5815824Y5776077D01*
X6034750Y6303309D01*
X6035248Y6874187D01*
X5817243Y7401800D01*
X5629397Y7589974D01*
X5815824Y7776077D01*
X6034750Y8303309D01*
X6035248Y8874187D01*
X5817243Y9401800D01*
X5413923Y9805824D01*
X5347456Y9833423D01*
X5354005Y9836136D01*
X5428139Y10082255D01*
X4600000Y10910395D01*
X4585858Y10896252D01*
X4406252Y11075858D01*
X4420395Y11090000D01*
X4779605Y11090000D01*
X5607745Y10261861D01*
X5853864Y10335995D01*
X6046965Y10873223D01*
X6019778Y11443454D01*
X5853864Y11844005D01*
X5607745Y11918139D01*
X4779605Y11090000D01*
X4420395Y11090000D01*
X4406252Y11104142D01*
X4585858Y11283748D01*
X4600000Y11269605D01*
X5428139Y12097745D01*
X5354005Y12343864D01*
X4917071Y12500915D01*
X5077390Y12740849D01*
X5186623Y13290000D01*
X5077390Y13839151D01*
X4766321Y14304698D01*
X4474031Y14500000D01*
X11775898Y14500000D01*
X8494199Y11218301D01*
G36*
X18121000Y5177000D02*
X18141000Y5177000D01*
X18141000Y4923000D01*
X18121000Y4923000D01*
X18121000Y4903000D01*
X17867000Y4903000D01*
X17867000Y4923000D01*
X17847000Y4923000D01*
X17847000Y5177000D01*
X17867000Y5177000D01*
X17867000Y5197000D01*
X18121000Y5197000D01*
X18121000Y5177000D01*
X18121000Y5177000D01*
G37*
X18121000Y5177000D02*
X18141000Y5177000D01*
X18141000Y4923000D01*
X18121000Y4923000D01*
X18121000Y4903000D01*
X17867000Y4903000D01*
X17867000Y4923000D01*
X17847000Y4923000D01*
X17847000Y5177000D01*
X17867000Y5177000D01*
X17867000Y5197000D01*
X18121000Y5197000D01*
X18121000Y5177000D01*
M02*
