G04 #@! TF.FileFunction,Soldermask,Top*
%FSLAX46Y46*%
G04 Gerber Fmt 4.6, Leading zero omitted, Abs format (unit mm)*
G04 Created by KiCad (PCBNEW 4.0.4+e1-6308~48~ubuntu16.04.1-stable) date Mon Dec 19 21:15:10 2016*
%MOMM*%
%LPD*%
G01*
G04 APERTURE LIST*
%ADD10C,0.100000*%
%ADD11R,1.997660X2.200860*%
%ADD12R,2.150000X0.850000*%
%ADD13R,1.400000X2.000000*%
%ADD14O,4.400000X2.000000*%
%ADD15C,2.200000*%
%ADD16C,2.000000*%
%ADD17R,2.432000X2.127200*%
%ADD18O,2.432000X2.127200*%
G04 APERTURE END LIST*
D10*
D11*
X17480140Y13350000D03*
X20319860Y13350000D03*
D12*
X14730000Y1805000D03*
X14730000Y2455000D03*
X14730000Y3105000D03*
X14730000Y3755000D03*
X14730000Y4405000D03*
X14730000Y5055000D03*
X14730000Y5705000D03*
X14730000Y6355000D03*
X14730000Y7005000D03*
X14730000Y7655000D03*
X14730000Y8305000D03*
X14730000Y8955000D03*
X14730000Y9605000D03*
X14730000Y10255000D03*
X7530000Y10255000D03*
X7530000Y9605000D03*
X7530000Y8955000D03*
X7530000Y8305000D03*
X7530000Y7655000D03*
X7530000Y7005000D03*
X7530000Y6355000D03*
X7530000Y5705000D03*
X7530000Y5055000D03*
X7530000Y4405000D03*
X7530000Y3755000D03*
X7530000Y3105000D03*
X7530000Y2455000D03*
X7530000Y1805000D03*
D13*
X7440000Y13310000D03*
X10440000Y13310000D03*
X12340000Y13320000D03*
X15340000Y13320000D03*
D11*
X17590140Y1748000D03*
X20429860Y1748000D03*
D14*
X2500000Y1890000D03*
X2500000Y13290000D03*
D15*
X2500000Y5340000D03*
X2500000Y9840000D03*
D16*
X4600000Y6590000D03*
X4600000Y8590000D03*
X4600000Y4090000D03*
X4600000Y11090000D03*
D17*
X17994000Y10130000D03*
D18*
X17994000Y7590000D03*
X17994000Y5050000D03*
M02*
